<?xml version="1.0" encoding="UTF-8" standalone="no"?>
<!-- Created with Inkscape (http://www.inkscape.org/) -->

<svg
   width="210mm"
   height="297mm"
   viewBox="0 0 210 297"
   version="1.1"
   id="svg912"
   sodipodi:docname="mailbox.svg"
   inkscape:version="1.1.2 (0a00cf5339, 2022-02-04)"
   xmlns:inkscape="http://www.inkscape.org/namespaces/inkscape"
   xmlns:sodipodi="http://sodipodi.sourceforge.net/DTD/sodipodi-0.dtd"
   xmlns="http://www.w3.org/2000/svg"
   xmlns:svg="http://www.w3.org/2000/svg">
  <sodipodi:namedview
     id="namedview914"
     pagecolor="#ffffff"
     bordercolor="#111111"
     borderopacity="1"
     inkscape:pageshadow="0"
     inkscape:pageopacity="0"
     inkscape:pagecheckerboard="1"
     inkscape:document-units="mm"
     showgrid="false"
     inkscape:zoom="0.7465348"
     inkscape:cx="39.425411"
     inkscape:cy="476.59844"
     inkscape:window-width="1920"
     inkscape:window-height="1014"
     inkscape:window-x="0"
     inkscape:window-y="38"
     inkscape:window-maximized="1"
     inkscape:current-layer="layer1"
     inkscape:rotation="4" />
  <defs
     id="defs909" />
  <g
     inkscape:label="Layer 1"
     inkscape:groupmode="layer"
     id="layer1">
    <path
       id="path1137"
       style="fill:none;stroke:#000000;stroke-width:1;stroke-linecap:butt;stroke-linejoin:miter;stroke-miterlimit:4;stroke-dasharray:none;stroke-opacity:1"
       d="m 78.697045,133.69923 -0.04821,-7.44248 c 0,0 -0.01519,0.16528 1.363872,-0.6566 1.379061,-0.82188 4.852424,0.67585 4.852424,0.67585 l 0.247695,7.43232 c 0,0 -3.1093,0.95189 -4.414422,0.63821 -1.305121,-0.31368 -2.001359,-0.6473 -2.001359,-0.6473 z M 81.880332,69.058801 2.7972484,98.157854 2.7316392,152.37424 c 70.4665118,-30.36982 83.8081158,-30.5937 83.8081158,-30.5937 11.419097,33.31652 4.630025,38.61112 4.630025,38.61112 h -10e-7 l 45.179081,0.69581 c 0,0 6.35851,-5.72721 -3.8308,-45.7497 l 22.10999,-6.89021 c 22.10998,-6.89021 49.16467,-7.35647 49.16467,-7.35647 l 0.5622,-47.401964 c 0,0 -43.16318,-12.693441 -122.474588,15.369675 z"
       sodipodi:nodetypes="ccsccscccccccccsccc" />
  </g>
</svg>
