<?xml version="1.0" encoding="UTF-8" standalone="no"?>
<!-- Created with Inkscape (http://www.inkscape.org/) -->

<svg
   width="210mm"
   height="297mm"
   viewBox="0 0 210 297"
   version="1.1"
   id="svg912"
   sodipodi:docname="mailbox.svg"
   inkscape:version="1.1.2 (0a00cf5339, 2022-02-04)"
   xmlns:inkscape="http://www.inkscape.org/namespaces/inkscape"
   xmlns:sodipodi="http://sodipodi.sourceforge.net/DTD/sodipodi-0.dtd"
   xmlns="http://www.w3.org/2000/svg"
   xmlns:svg="http://www.w3.org/2000/svg">
  <sodipodi:namedview
     id="namedview914"
     pagecolor="#ffffff"
     bordercolor="#111111"
     borderopacity="1"
     inkscape:pageshadow="0"
     inkscape:pageopacity="0"
     inkscape:pagecheckerboard="1"
     inkscape:document-units="mm"
     showgrid="false"
     inkscape:zoom="1.4930696"
     inkscape:cx="284.64849"
     inkscape:cy="475.53042"
     inkscape:window-width="1920"
     inkscape:window-height="1020"
     inkscape:window-x="0"
     inkscape:window-y="32"
     inkscape:window-maximized="1"
     inkscape:current-layer="layer1" />
  <defs
     id="defs909" />
  <g
     inkscape:label="Layer 1"
     inkscape:groupmode="layer"
     id="layer1">
    <path
       style="fill:none;stroke:#000000;stroke-width:2;stroke-linecap:butt;stroke-linejoin:miter;stroke-miterlimit:4;stroke-dasharray:none;stroke-opacity:1"
       d="M 3.2777572,96.590296 3.2121478,150.80668"
       id="path1006"
       sodipodi:nodetypes="cc" />
    <path
       style="fill:none;stroke:#000000;stroke-width:2;stroke-linecap:butt;stroke-linejoin:miter;stroke-miterlimit:4;stroke-dasharray:none;stroke-opacity:1"
       d="m 204.94959,52.639536 c 0,0 -43.04902,-12.175474 -122.360427,15.887642"
       id="path1008"
       sodipodi:nodetypes="cc" />
    <path
       style="fill:none;stroke:#000000;stroke-width:2;stroke-linecap:butt;stroke-linejoin:miter;stroke-opacity:1;stroke-miterlimit:4;stroke-dasharray:none"
       d="M 82.589163,68.527178 C 3.2777572,96.590296 3.2777572,96.590296 3.2777572,96.590296"
       id="path1010" />
    <path
       style="fill:none;stroke:#000000;stroke-width:2;stroke-linecap:butt;stroke-linejoin:miter;stroke-opacity:1;stroke-miterlimit:4;stroke-dasharray:none"
       d="m 204.94959,52.639536 c -0.44804,47.919934 -0.44804,47.919934 -0.44804,47.919934 0,0 -27.05469,0.46627 -49.16467,7.35647 -22.10999,6.89021 -22.10999,6.89021 -22.10999,6.89021"
       id="path2699" />
    <path
       style="fill:none;stroke:#000000;stroke-width:2;stroke-linecap:butt;stroke-linejoin:miter;stroke-opacity:1;stroke-miterlimit:4;stroke-dasharray:none"
       d="M 3.2121477,150.80668 C 73.67866,120.43686 87.289427,120.85924 87.289427,120.85924"
       id="path2701" />
    <path
       style="fill:none;stroke:#000000;stroke-width:1;stroke-linecap:butt;stroke-linejoin:miter;stroke-opacity:1;stroke-miterlimit:4;stroke-dasharray:none"
       d="m 79.405876,133.16761 c 0,0 0,0 -0.04821,-7.44248 0,0 -0.01519,0.16528 1.363872,-0.6566 1.379061,-0.82188 4.852424,0.67585 4.852424,0.67585 l 0.247695,7.43232 c 0,0 -3.1093,0.95189 -4.414422,0.63821 -1.305121,-0.31368 -2.001359,-0.6473 -2.001359,-0.6473 z"
       id="path2945" />
  </g>
</svg>
