<?xml version="1.0" encoding="UTF-8" standalone="no"?>
<!-- Created with Inkscape (http://www.inkscape.org/) -->

<svg
   width="210mm"
   height="297mm"
   viewBox="0 0 210 297"
   version="1.1"
   id="svg983"
   inkscape:version="1.1.2 (0a00cf5339, 2022-02-04)"
   sodipodi:docname="map.svg"
   xmlns:inkscape="http://www.inkscape.org/namespaces/inkscape"
   xmlns:sodipodi="http://sodipodi.sourceforge.net/DTD/sodipodi-0.dtd"
   xmlns="http://www.w3.org/2000/svg"
   xmlns:svg="http://www.w3.org/2000/svg">
  <sodipodi:namedview
     id="namedview985"
     pagecolor="#ffffff"
     bordercolor="#111111"
     borderopacity="1"
     inkscape:pageshadow="0"
     inkscape:pageopacity="0"
     inkscape:pagecheckerboard="1"
     inkscape:document-units="mm"
     showgrid="false"
     inkscape:zoom="2.9647587"
     inkscape:cx="277.93155"
     inkscape:cy="572.72789"
     inkscape:window-width="1920"
     inkscape:window-height="1014"
     inkscape:window-x="0"
     inkscape:window-y="38"
     inkscape:window-maximized="1"
     inkscape:current-layer="layer1" />
  <defs
     id="defs980" />
  <g
     inkscape:label="Layer 1"
     inkscape:groupmode="layer"
     id="layer1">
    <path
       id="path1137"
       style="fill:none;stroke:#000000;stroke-width:0.326488;stroke-linecap:butt;stroke-linejoin:miter;stroke-miterlimit:4;stroke-dasharray:none;stroke-opacity:1"
       d="m 94.568807,157.06518 -0.0157,-2.42989 c 0,0 -0.005,0.054 0.44528,-0.21437 0.45025,-0.26833 1.58426,0.22066 1.58426,0.22066 l 0.0809,2.42656 c 0,0 -1.01515,0.31078 -1.44125,0.20837 -0.42611,-0.10241 -0.65342,-0.21134 -0.65342,-0.21133 z m 1.0393,-21.10434 -25.8197,9.50049 -0.0214,17.70102 c 23.00649,-9.91539 27.36237,-9.98849 27.36237,-9.98849 3.728203,10.87746 3.080033,12.57676 3.080033,12.57676 0.51867,-0.0248 0,0 0,0 l 14.43278,-0.0202 c 0,0 0.82526,-1.59318 -2.50143,-14.66006 l 7.21865,-2.24957 c 7.21865,-2.24957 16.05169,-2.4018 16.05169,-2.4018 l 0.18355,-15.47618 c 0,0 -14.09227,-4.14426 -39.986523,5.01802 z"
       sodipodi:nodetypes="ccsccscccccccccscccsc"
       inkscape:label="mailbox" />
    <path
       style="fill:none;stroke:#000000;stroke-width:0.331433;stroke-linecap:butt;stroke-linejoin:miter;stroke-miterlimit:4;stroke-dasharray:none;stroke-opacity:1"
       d="m 89.248819,142.40872 3.620408,7.71317 7.678263,-2.94065 8.69544,-4.06551 4.51799,-2.42808 -3.85436,-8.06938 -4.75483,1.79755 -8.566855,3.95814 z"
       id="path1151"
       sodipodi:nodetypes="ccccccccc"
       inkscape:label="car" />
    <path
       d="M 115.94734,203.25645 H 96.822007 c 0,0 4.154423,-11.85505 3.767973,-17.92884 0,0 -0.29537,-7.12694 -0.38057,-19.57699 l 14.43278,-0.0202 c -1.18117,8.75352 1.16567,23.44271 1.16567,23.44271 0,0 2.66395,2.11027 4.79045,2.71176 l 0.0461,7.09663 c -5.16638,1.22613 -4.6971,4.27491 -4.6971,4.27491 z"
       style="fill:none;stroke:#000000;stroke-width:0.326;stroke-linecap:butt;stroke-linejoin:miter;stroke-miterlimit:4;stroke-dasharray:none;stroke-opacity:1"
       id="path10166"
       inkscape:label="farm_front_path" />
    <path
       d="m 69.788407,145.46133 c -24.975939,8.37211 -57.78879,8.56441 -57.78879,8.56441 l -0.0479,15.33815 0.584052,0.3131 c 43.496297,-0.007 57.231267,-6.51464 57.231267,-6.51464 h -1.5e-5 z"
       style="display:inline;fill:none;stroke:#000000;stroke-width:0.326;stroke-linecap:butt;stroke-linejoin:miter;stroke-miterlimit:4;stroke-dasharray:none;stroke-opacity:1"
       id="path1147"
       inkscape:label="steep_road" />
  </g>
</svg>
