<?xml version="1.0" encoding="UTF-8"?>
<!-- Created with Inkscape (http://www.inkscape.org/) -->
<svg width="210mm" height="297mm" version="1.1" viewBox="0 0 210 297" xmlns="http://www.w3.org/2000/svg">
 <g fill="none" stroke="#000">
  <path d="m94.569 157.07-0.0157-2.4299s-5e-3 0.054 0.44528-0.21437c0.45025-0.26833 1.5843 0.22066 1.5843 0.22066l0.0809 2.4266s-1.0152 0.31078-1.4412 0.20837c-0.42611-0.10241-0.65342-0.21134-0.65342-0.21133zm1.0393-21.104-25.82 9.5005-0.0214 17.701c23.006-9.9154 27.362-9.9885 27.362-9.9885 3.7282 10.877 3.08 12.577 3.08 12.577 0.51867-0.0248 0 0 0 0l14.433-0.0202s0.82526-1.5932-2.5014-14.66l7.2186-2.2496c7.2186-2.2496 16.052-2.4018 16.052-2.4018l0.18355-15.476s-14.092-4.1443-39.987 5.018z" stroke-width=".32649"/>
  <path d="m89.249 142.41 3.6204 7.7132 7.6783-2.9406 8.6954-4.0655 4.518-2.4281-3.8544-8.0694-4.7548 1.7976-8.5669 3.9581z" stroke-width=".33143"/>
  <path d="m115.95 203.26h-19.125s4.1544-11.855 3.768-17.929c0 0-0.29537-7.1269-0.38057-19.577l14.433-0.0202c-1.1812 8.7535 1.1657 23.443 1.1657 23.443s2.664 2.1103 4.7904 2.7118l0.0461 7.0966c-5.1664 1.2261-4.6971 4.2749-4.6971 4.2749z" stroke-width=".326"/>
  <path d="m69.788 145.46c-24.976 8.3721-57.789 8.5644-57.789 8.5644l-0.0479 15.338 0.58405 0.3131c43.496-7e-3 57.231-6.5146 57.231-6.5146h-1.5e-5z" stroke-width=".326"/>
 </g>
</svg>
