<?xml version="1.0" encoding="UTF-8" standalone="no"?>
<!-- Created with Inkscape (http://www.inkscape.org/) -->

<svg
   xmlns:dc="http://purl.org/dc/elements/1.1/"
   xmlns:cc="http://creativecommons.org/ns#"
   xmlns:rdf="http://www.w3.org/1999/02/22-rdf-syntax-ns#"
   xmlns:svg="http://www.w3.org/2000/svg"
   xmlns="http://www.w3.org/2000/svg"
   xmlns:sodipodi="http://sodipodi.sourceforge.net/DTD/sodipodi-0.dtd"
   xmlns:inkscape="http://www.inkscape.org/namespaces/inkscape"
   width="210mm"
   height="297mm"
   viewBox="0 0 210 297"
   version="1.1"
   id="svg4535"
   inkscape:version="0.92.2 (5c3e80d, 2017-08-06)"
   sodipodi:docname="tabicon2.svg">
  <defs
     id="defs4529" />
  <sodipodi:namedview
     id="base"
     pagecolor="#ffffff"
     bordercolor="#666666"
     borderopacity="1.0"
     inkscape:pageopacity="0.0"
     inkscape:pageshadow="2"
     inkscape:zoom="0.7"
     inkscape:cx="106.98984"
     inkscape:cy="553.09657"
     inkscape:document-units="mm"
     inkscape:current-layer="layer1"
     showgrid="false"
     inkscape:window-width="1856"
     inkscape:window-height="1057"
     inkscape:window-x="1496"
     inkscape:window-y="-8"
     inkscape:window-maximized="1" />
  <metadata
     id="metadata4532">
    <rdf:RDF>
      <cc:Work
         rdf:about="">
        <dc:format>image/svg+xml</dc:format>
        <dc:type
           rdf:resource="http://purl.org/dc/dcmitype/StillImage" />
        <dc:title></dc:title>
      </cc:Work>
    </rdf:RDF>
  </metadata>
  <g
     inkscape:label="Layer 1"
     inkscape:groupmode="layer"
     id="layer1">
    <path
       style="fill:#999999;fill-opacity:1;fill-rule:evenodd;stroke:#333333;stroke-width:1.51181104;stroke-linecap:butt;stroke-miterlimit:4;stroke-dasharray:none;paint-order:normal"
       d="M 587.39453 446.0293 A 192.14286 187.14284 0 0 1 588.99414 468.23438 A 192.14286 187.14284 0 0 1 396.84961 655.37695 A 192.14286 187.14284 0 0 1 204.70703 468.23438 A 192.14286 187.14284 0 0 1 206.16602 446.3418 A 210 280.71429 0 0 0 186.84961 563.23438 A 210 280.71429 0 0 0 396.84961 843.94727 A 210 280.71429 0 0 0 606.84961 563.23438 A 210 280.71429 0 0 0 587.39453 446.0293 z "
       transform="scale(0.26458333)"
       id="path5125" />
    <path
       style="fill:#999999;fill-opacity:1;fill-rule:evenodd;stroke:#333333;stroke-width:1.51181104;stroke-linecap:butt;stroke-miterlimit:4;stroke-dasharray:none;paint-order:normal"
       d="M 206.16602 446.3418 A 190.68438 189.15723 0 0 0 300.79492 610.96875 A 190.68438 189.15723 0 0 0 491.83398 611.58008 A 190.68438 189.15723 0 0 0 587.53125 447.5625 L 396.8457 447.5625 L 206.16602 446.3418 z M 396.4043 575.38281 A 17.857143 17.857143 0 0 1 414.69922 592.6875 A 17.857143 17.857143 0 0 1 397.49805 611.08008 A 17.857143 17.857143 0 0 1 379.00977 593.98438 L 378.99609 593.57812 A 17.857143 17.857143 0 0 1 396.4043 575.38281 z "
       transform="scale(0.26458333)"
       id="path5138" />
    <path
       style="fill:#999999;fill-opacity:1;fill-rule:evenodd;stroke:#333333;stroke-width:0.4;stroke-linecap:butt;stroke-miterlimit:4;stroke-dasharray:none;paint-order:normal"
       id="path5142"
       sodipodi:type="arc"
       sodipodi:cx="79.941963"
       sodipodi:cy="115.94941"
       sodipodi:rx="17.575893"
       sodipodi:ry="7.1815495"
       sodipodi:start="3.1222956"
       sodipodi:end="0.052010376"
       d="m 62.369342,116.08798 a 17.575893,7.1815495 0 0 1 8.852833,-6.37397 17.575893,7.1815495 0 0 1 17.934038,0.11987 17.575893,7.1815495 0 0 1 8.337877,6.48888 l -17.552127,-0.37335 z" />
    <path
       style="fill:#999999;fill-opacity:1;fill-rule:evenodd;stroke:#333333;stroke-width:0.4;stroke-linecap:butt;stroke-miterlimit:4;stroke-dasharray:none;paint-order:normal"
       id="path5142-4"
       sodipodi:type="arc"
       sodipodi:cx="130.40179"
       sodipodi:cy="116.32882"
       sodipodi:rx="17.575893"
       sodipodi:ry="7.1815495"
       sodipodi:start="3.1222956"
       sodipodi:end="0.052010376"
       d="m 112.82917,116.46739 a 17.575893,7.1815495 0 0 1 8.85284,-6.37397 17.575893,7.1815495 0 0 1 17.93403,0.11987 17.575893,7.1815495 0 0 1 8.33788,6.48888 l -17.55213,-0.37335 z" />
    <path
       style="fill:#999999;fill-opacity:1;fill-rule:evenodd;stroke:#333333;stroke-width:0.4;stroke-linecap:butt;stroke-miterlimit:4;stroke-dasharray:none;paint-order:normal"
       id="path5165"
       sodipodi:type="arc"
       sodipodi:cx="28.727327"
       sodipodi:cy="-201.53961"
       sodipodi:rx="2.6457994"
       sodipodi:ry="7.4889102"
       sodipodi:start="3.1222893"
       sodipodi:end="3.0996021"
       d="m 26.082021,-201.39506 a 2.6457994,7.4889102 0 0 1 2.579234,-7.63113 2.6457994,7.4889102 0 0 1 2.710629,7.2571 2.6457994,7.4889102 0 0 1 -2.548486,7.71345 2.6457994,7.4889102 0 0 1 -2.739538,-7.1696"
       sodipodi:open="true"
       transform="matrix(0.71525608,-0.69886246,-0.69886246,-0.71525608,0,0)" />
  </g>
</svg>
