<?xml version="1.0" encoding="UTF-8" standalone="no"?>
<!-- Created with Inkscape (http://www.inkscape.org/) -->

<svg
   xmlns:dc="http://purl.org/dc/elements/1.1/"
   xmlns:cc="http://creativecommons.org/ns#"
   xmlns:rdf="http://www.w3.org/1999/02/22-rdf-syntax-ns#"
   xmlns:svg="http://www.w3.org/2000/svg"
   xmlns="http://www.w3.org/2000/svg"
   xmlns:sodipodi="http://sodipodi.sourceforge.net/DTD/sodipodi-0.dtd"
   xmlns:inkscape="http://www.inkscape.org/namespaces/inkscape"
   width="210mm"
   height="297mm"
   viewBox="0 0 210 297"
   version="1.1"
   id="svg5176"
   inkscape:version="0.92.2 (5c3e80d, 2017-08-06)"
   sodipodi:docname="tabicon5.svg">
  <defs
     id="defs5170" />
  <sodipodi:namedview
     id="base"
     pagecolor="#ffffff"
     bordercolor="#666666"
     borderopacity="1.0"
     inkscape:pageopacity="0.0"
     inkscape:pageshadow="2"
     inkscape:zoom="0.7"
     inkscape:cx="410.74364"
     inkscape:cy="597.83373"
     inkscape:document-units="mm"
     inkscape:current-layer="layer1"
     showgrid="true"
     inkscape:window-width="1858"
     inkscape:window-height="1057"
     inkscape:window-x="1494"
     inkscape:window-y="-8"
     inkscape:window-maximized="1">
    <inkscape:grid
       type="xygrid"
       id="grid833" />
  </sodipodi:namedview>
  <metadata
     id="metadata5173">
    <rdf:RDF>
      <cc:Work
         rdf:about="">
        <dc:format>image/svg+xml</dc:format>
        <dc:type
           rdf:resource="http://purl.org/dc/dcmitype/StillImage" />
        <dc:title />
      </cc:Work>
    </rdf:RDF>
  </metadata>
  <g
     inkscape:label="Layer 1"
     inkscape:groupmode="layer"
     id="layer1">
    <path
       style="fill:#999999;fill-opacity:1;fill-rule:evenodd;stroke:#333333;stroke-width:0.40000001;stroke-linecap:butt;stroke-miterlimit:4;stroke-dasharray:none;paint-order:normal"
       d="m 84.666667,138.25 c 2.01513,-7.33568 20.557143,-66.470593 20.738363,-66.139583 0.14038,0.25642 4.61668,14.66867 9.94734,32.027223 5.33066,17.35856 9.93064,32.28389 10.22218,33.16742 l 0.53008,1.60639 H 105.2948 c -19.636133,0 -20.799593,-0.0373 -20.628133,-0.66145 z"
       id="path841"
       inkscape:connector-curvature="0" />
    <path
       style="fill:#999999;fill-opacity:1;fill-rule:evenodd;stroke:#333333;stroke-width:0.40000001;stroke-linecap:butt;stroke-miterlimit:4;stroke-dasharray:none;paint-order:normal"
       d="m 125.20927,181.90623 c -2.01513,7.33568 -20.55715,66.47059 -20.73837,66.13958 -0.14038,-0.25642 -4.616683,-14.66867 -9.947347,-32.02722 -5.330659,-17.35856 -9.930639,-32.28389 -10.222179,-33.16742 l -0.53008,-1.60639 h 20.809836 c 19.63614,0 20.7996,0.0373 20.62814,0.66145 z"
       id="path841-4"
       inkscape:connector-curvature="0" />
    <path
       style="fill:#999999;fill-opacity:1;fill-rule:evenodd;stroke:#333333;stroke-width:0.40000001;stroke-linecap:butt;stroke-miterlimit:4;stroke-dasharray:none;paint-order:normal"
       d="m 83.109844,180.34941 c -7.33568,-2.01513 -66.470591,-20.55714 -66.139581,-20.73836 0.25642,-0.14038 14.66867,-4.61668 32.027221,-9.94734 17.35856,-5.33066 32.28389,-9.93064 33.16742,-10.22218 l 1.60639,-0.53008 v 20.80983 c 0,19.63613 -0.0373,20.79959 -0.66145,20.62813 z"
       id="path841-9"
       inkscape:connector-curvature="0" />
    <path
       style="fill:#999999;fill-opacity:1;fill-rule:evenodd;stroke:#333333;stroke-width:0.40000001;stroke-linecap:butt;stroke-miterlimit:4;stroke-dasharray:none;paint-order:normal"
       d="m 126.10463,138.91145 c 7.33568,2.01513 66.47058,20.55714 66.13957,20.73836 -0.25642,0.14038 -14.66867,4.61668 -32.02722,9.94734 -17.35856,5.33066 -32.28388,9.93064 -33.16741,10.22218 l -1.60639,0.53008 v -20.80983 c 0,-19.63613 0.0373,-20.79959 0.66145,-20.62813 z"
       id="path841-9-3"
       inkscape:connector-curvature="0" />
  </g>
</svg>
